<svg width="162" height="76" viewBox="0 0 162 76" fill="none" xmlns="http://www.w3.org/2000/svg">
<g filter="url(#filter0_d)">
<path d="M64.1993 53.9039V65.7839H9.11934V56.3339L43.6793 14.6639H9.83934V2.7839H62.8493V12.2339L28.3793 53.9039H64.1993Z" fill="black"/>
<path d="M107.766 33.24C110.766 33.24 113.486 33.94 115.926 35.34C118.406 36.7 120.346 38.64 121.746 41.16C123.146 43.64 123.846 46.54 123.846 49.86C123.846 53.18 123.146 56.1 121.746 58.62C120.346 61.1 118.406 63.04 115.926 64.44C113.486 65.8 110.766 66.48 107.766 66.48C103.326 66.48 99.9456 65.08 97.6256 62.28V66H88.6856V21.48H98.0456V37.14C100.406 34.54 103.646 33.24 107.766 33.24ZM106.146 58.8C108.546 58.8 110.506 58 112.026 56.4C113.586 54.76 114.366 52.58 114.366 49.86C114.366 47.14 113.586 44.98 112.026 43.38C110.506 41.74 108.546 40.92 106.146 40.92C103.746 40.92 101.766 41.74 100.206 43.38C98.6856 44.98 97.9256 47.14 97.9256 49.86C97.9256 52.58 98.6856 54.76 100.206 56.4C101.766 58 103.746 58.8 106.146 58.8ZM140.971 66.48C138.291 66.48 135.671 66.16 133.111 65.52C130.551 64.84 128.511 64 126.991 63L130.111 56.28C131.551 57.2 133.291 57.96 135.331 58.56C137.371 59.12 139.371 59.4 141.331 59.4C145.291 59.4 147.271 58.42 147.271 56.46C147.271 55.54 146.731 54.88 145.651 54.48C144.571 54.08 142.911 53.74 140.671 53.46C138.031 53.06 135.851 52.6 134.131 52.08C132.411 51.56 130.911 50.64 129.631 49.32C128.391 48 127.771 46.12 127.771 43.68C127.771 41.64 128.351 39.84 129.511 38.28C130.711 36.68 132.431 35.44 134.671 34.56C136.951 33.68 139.631 33.24 142.711 33.24C144.991 33.24 147.251 33.5 149.491 34.02C151.771 34.5 153.651 35.18 155.131 36.06L152.011 42.72C149.171 41.12 146.071 40.32 142.711 40.32C140.711 40.32 139.211 40.6 138.211 41.16C137.211 41.72 136.711 42.44 136.711 43.32C136.711 44.32 137.251 45.02 138.331 45.42C139.411 45.82 141.131 46.2 143.491 46.56C146.131 47 148.291 47.48 149.971 48C151.651 48.48 153.111 49.38 154.351 50.7C155.591 52.02 156.211 53.86 156.211 56.22C156.211 58.22 155.611 60 154.411 61.56C153.211 63.12 151.451 64.34 149.131 65.22C146.851 66.06 144.131 66.48 140.971 66.48Z" fill="black"/>
<path d="M75.5211 67.2C71.4211 67.2 67.9711 65.8 65.1711 63C62.3711 60.2 60.9711 56.7 60.9711 52.5C60.9711 48.2 62.3711 44.75 65.1711 42.15C67.9711 39.45 71.4211 38.1 75.5211 38.1C79.6211 38.1 83.0711 39.45 85.8711 42.15C88.6711 44.75 90.0711 48.2 90.0711 52.5C90.0711 56.7 88.6711 60.2 85.8711 63C83.0711 65.8 79.6211 67.2 75.5211 67.2Z" fill="black"/>
</g>
<defs>
<filter id="filter0_d" x="5.11934" y="2.78391" width="155.092" height="72.4161" filterUnits="userSpaceOnUse" color-interpolation-filters="sRGB">
<feFlood flood-opacity="0" result="BackgroundImageFix"/>
<feColorMatrix in="SourceAlpha" type="matrix" values="0 0 0 0 0 0 0 0 0 0 0 0 0 0 0 0 0 0 127 0" result="hardAlpha"/>
<feOffset dy="4"/>
<feGaussianBlur stdDeviation="2"/>
<feComposite in2="hardAlpha" operator="out"/>
<feColorMatrix type="matrix" values="0 0 0 0 0 0 0 0 0 0 0 0 0 0 0 0 0 0 0.25 0"/>
<feBlend mode="normal" in2="BackgroundImageFix" result="effect1_dropShadow"/>
<feBlend mode="normal" in="SourceGraphic" in2="effect1_dropShadow" result="shape"/>
</filter>
</defs>
</svg>
